<svg id="Layer_1" data-name="Layer 1" xmlns="http://www.w3.org/2000/svg" viewBox="0 0 250 75"><defs><style>.cls-1{fill:#0f86ff;}</style></defs><title>toasted-Artboard 1</title><path class="cls-1" d="M19.27,56a6.33,6.33,0,0,1-4.68-1.67q-1.67-1.67-1.67-5.16V28.93H8.66a.8.8,0,0,1-.54-.18.63.63,0,0,1-.21-.51v-1.1L13,26.78l.71-10.62a.82.82,0,0,1,.22-.48.67.67,0,0,1,.52-.21h1.33V26.81h9.34v2.12H15.75V49.07a6.29,6.29,0,0,0,.31,2.1,3.92,3.92,0,0,0,.87,1.45,3.39,3.39,0,0,0,1.3.83,4.72,4.72,0,0,0,1.61.27,4.93,4.93,0,0,0,1.85-.31A7.63,7.63,0,0,0,23,52.72,8.52,8.52,0,0,0,24,52a1,1,0,0,1,.57-.31A.65.65,0,0,1,25,52l.78,1.25a8.27,8.27,0,0,1-2.88,2A9,9,0,0,1,19.27,56Z"/><path class="cls-1" d="M43.76,25.41a14.28,14.28,0,0,1,5.71,1.09,11.65,11.65,0,0,1,4.25,3.09,13.69,13.69,0,0,1,2.64,4.82,20.48,20.48,0,0,1,.91,6.31A20.34,20.34,0,0,1,56.36,47a13.7,13.7,0,0,1-2.64,4.8,11.49,11.49,0,0,1-4.25,3.07A14.45,14.45,0,0,1,43.76,56,14.45,14.45,0,0,1,38,54.88a11.62,11.62,0,0,1-4.27-3.07A13.56,13.56,0,0,1,31.13,47a20.34,20.34,0,0,1-.91-6.29,20.48,20.48,0,0,1,.91-6.31,13.55,13.55,0,0,1,2.65-4.82A11.78,11.78,0,0,1,38,26.5,14.28,14.28,0,0,1,43.76,25.41Zm0,28.31a11,11,0,0,0,4.64-.91,8.79,8.79,0,0,0,3.31-2.61,11.51,11.51,0,0,0,2-4.1,20.44,20.44,0,0,0,.66-5.38,20.48,20.48,0,0,0-.66-5.37,11.66,11.66,0,0,0-2-4.13,8.87,8.87,0,0,0-3.31-2.64,10.88,10.88,0,0,0-4.64-.92,10.88,10.88,0,0,0-4.64.92,8.85,8.85,0,0,0-3.31,2.64,11.84,11.84,0,0,0-2,4.13,20,20,0,0,0-.67,5.37,20,20,0,0,0,.67,5.38,11.69,11.69,0,0,0,2,4.1,8.77,8.77,0,0,0,3.31,2.61A11,11,0,0,0,43.76,53.72Z"/><path class="cls-1" d="M83.67,55.57a1,1,0,0,1-1.1-.83l-.42-3.79a31.17,31.17,0,0,1-2.43,2.15A14.55,14.55,0,0,1,77.2,54.7a12.41,12.41,0,0,1-2.83,1A15.21,15.21,0,0,1,71,56a9.84,9.84,0,0,1-3-.45,7.28,7.28,0,0,1-2.54-1.37,6.73,6.73,0,0,1-1.77-2.37,8.21,8.21,0,0,1-.67-3.47,6.17,6.17,0,0,1,1.07-3.49,8.82,8.82,0,0,1,3.36-2.8,22.14,22.14,0,0,1,5.88-1.91A51.12,51.12,0,0,1,82,39.34v-3.1a9.94,9.94,0,0,0-1.77-6.34A6.33,6.33,0,0,0,75,27.68a9.94,9.94,0,0,0-3.65.6,13,13,0,0,0-2.55,1.31,16.12,16.12,0,0,0-1.7,1.31,1.84,1.84,0,0,1-1.1.6,1,1,0,0,1-.89-.54l-.51-.86a17.24,17.24,0,0,1,4.89-3.52,13.64,13.64,0,0,1,5.82-1.19,10.61,10.61,0,0,1,4.18.76,7.72,7.72,0,0,1,3,2.18,9.53,9.53,0,0,1,1.77,3.43,15.78,15.78,0,0,1,.6,4.49V55.57ZM71.74,54a12.7,12.7,0,0,0,3.18-.37,11.79,11.79,0,0,0,2.68-1A13.1,13.1,0,0,0,79.91,51Q81,50,82,49V41.25a53,53,0,0,0-7.29.64,21,21,0,0,0-5,1.42,7.39,7.39,0,0,0-2.92,2.13,4.54,4.54,0,0,0-.94,2.82,6.22,6.22,0,0,0,.49,2.58,5,5,0,0,0,3.18,2.82A7.61,7.61,0,0,0,71.74,54Z"/><path class="cls-1" d="M110.09,29.59a.69.69,0,0,1-.66.42,1.62,1.62,0,0,1-.85-.37,13.68,13.68,0,0,0-1.37-.84,11.2,11.2,0,0,0-2.09-.83,10.62,10.62,0,0,0-3-.37,8.89,8.89,0,0,0-2.94.46,7.3,7.3,0,0,0-2.27,1.23,5.61,5.61,0,0,0-1.46,1.8,4.69,4.69,0,0,0-.52,2.16,3.67,3.67,0,0,0,.72,2.32,6.15,6.15,0,0,0,1.88,1.58,14.38,14.38,0,0,0,2.64,1.13l3,1q1.55.48,3,1.06a11.41,11.41,0,0,1,2.64,1.45,6.84,6.84,0,0,1,1.88,2.12,6,6,0,0,1,.72,3,9.24,9.24,0,0,1-.7,3.61,8.22,8.22,0,0,1-2,2.89,9.72,9.72,0,0,1-3.27,1.94A12.68,12.68,0,0,1,101,56a13.32,13.32,0,0,1-5.4-1,15.15,15.15,0,0,1-4.06-2.61l.69-1a1.17,1.17,0,0,1,.33-.36.91.91,0,0,1,.51-.12,1.64,1.64,0,0,1,1,.48,11.84,11.84,0,0,0,1.48,1,12.17,12.17,0,0,0,2.27,1,10.2,10.2,0,0,0,3.36.48,9.64,9.64,0,0,0,3.31-.52A6.88,6.88,0,0,0,106.84,52a5.9,5.9,0,0,0,1.45-2.1,6.69,6.69,0,0,0,.49-2.55,4.1,4.1,0,0,0-.72-2.48,6.14,6.14,0,0,0-1.88-1.67,13.13,13.13,0,0,0-2.64-1.16l-3-1q-1.57-.48-3-1a11,11,0,0,1-2.64-1.43,6.91,6.91,0,0,1-1.88-2.1,6.09,6.09,0,0,1-.72-3.09,7.08,7.08,0,0,1,.69-3,7.74,7.74,0,0,1,2-2.56A9.61,9.61,0,0,1,98,26.07a12,12,0,0,1,4.09-.66,13.71,13.71,0,0,1,4.82.79,11.77,11.77,0,0,1,3.86,2.41Z"/><path class="cls-1" d="M127.48,56a6.33,6.33,0,0,1-4.68-1.67q-1.67-1.67-1.67-5.16V28.93h-4.27a.8.8,0,0,1-.54-.18.63.63,0,0,1-.21-.51v-1.1l5.07-.36.71-10.62a.82.82,0,0,1,.22-.48.67.67,0,0,1,.52-.21H124V26.81h9.34v2.12H124V49.07a6.29,6.29,0,0,0,.31,2.1,3.92,3.92,0,0,0,.87,1.45,3.39,3.39,0,0,0,1.3.83,4.72,4.72,0,0,0,1.61.27,4.93,4.93,0,0,0,1.85-.31,7.63,7.63,0,0,0,1.34-.69,8.52,8.52,0,0,0,.92-.69,1,1,0,0,1,.57-.31.65.65,0,0,1,.48.3l.78,1.25a8.27,8.27,0,0,1-2.88,2A9,9,0,0,1,127.48,56Z"/><path class="cls-1" d="M151.85,25.41a12.22,12.22,0,0,1,4.64.87,10.43,10.43,0,0,1,3.7,2.52,11.63,11.63,0,0,1,2.45,4.07,16.18,16.18,0,0,1,.88,5.55,1.49,1.49,0,0,1-.19.9.74.74,0,0,1-.61.24H141.29v.57a20.11,20.11,0,0,0,.78,5.88,12,12,0,0,0,2.21,4.25,9.09,9.09,0,0,0,3.46,2.58,11.44,11.44,0,0,0,4.53.87,13.57,13.57,0,0,0,3.88-.49,14.46,14.46,0,0,0,2.76-1.1,15.18,15.18,0,0,0,1.77-1.1,2,2,0,0,1,1-.49.69.69,0,0,1,.6.3l.78,1a8.09,8.09,0,0,1-1.89,1.67,13.51,13.51,0,0,1-2.62,1.33,19.06,19.06,0,0,1-3.1.88,17.07,17.07,0,0,1-3.33.33,14.12,14.12,0,0,1-5.55-1.06,11.79,11.79,0,0,1-4.3-3.09,14.13,14.13,0,0,1-2.77-5,21.23,21.23,0,0,1-1-6.73,18.33,18.33,0,0,1,.91-5.89A13.48,13.48,0,0,1,142,29.57a12,12,0,0,1,4.21-3.06A13.82,13.82,0,0,1,151.85,25.41Zm0,2.12a11.14,11.14,0,0,0-4.11.72,9,9,0,0,0-3.14,2.06,10.5,10.5,0,0,0-2.14,3.22,14.66,14.66,0,0,0-1.09,4.21h19.54a13,13,0,0,0-.66-4.28,9.16,9.16,0,0,0-1.85-3.21,8,8,0,0,0-2.86-2A9.44,9.44,0,0,0,151.89,27.53Z"/><path class="cls-1" d="M192.19,55.57a.8.8,0,0,1-.85-.78l-.3-4.68a15.73,15.73,0,0,1-4.61,4.27A11.32,11.32,0,0,1,180.5,56,10.35,10.35,0,0,1,172,52.17q-3.06-3.79-3.06-11.36a20.91,20.91,0,0,1,.85-6.07,14.41,14.41,0,0,1,2.51-4.89,11.92,11.92,0,0,1,4.06-3.27,12.31,12.31,0,0,1,5.54-1.19,11.44,11.44,0,0,1,5.23,1.12,11,11,0,0,1,3.82,3.27V12.17h2.83v43.4ZM181.3,53.66a9.75,9.75,0,0,0,5.35-1.52,15.14,15.14,0,0,0,4.27-4.24V32.24a10.44,10.44,0,0,0-3.81-3.58,10.33,10.33,0,0,0-4.71-1,10.44,10.44,0,0,0-4.6,1,9.06,9.06,0,0,0-3.3,2.7,12.16,12.16,0,0,0-2,4.18,20.05,20.05,0,0,0-.67,5.35q0,6.62,2.45,9.74A8.4,8.4,0,0,0,181.3,53.66Z"/><path class="cls-1" d="M210.67,25V56.61a13.17,13.17,0,0,1-.52,3.76,8.25,8.25,0,0,1-1.67,3.09,7.8,7.8,0,0,1-3,2.09,12.06,12.06,0,0,1-4.55.76,13.11,13.11,0,0,1-1.94-.13,11.54,11.54,0,0,1-1.82-.43l.24-4a.89.89,0,0,1,.48-.76,4.45,4.45,0,0,1,1.49-.16,6.7,6.7,0,0,0,1.86-.22,2.67,2.67,0,0,0,1.22-.72,2.82,2.82,0,0,0,.66-1.3,8.7,8.7,0,0,0,.19-2V25Zm1.1-8.92a4.21,4.21,0,0,1-.39,1.79,4.87,4.87,0,0,1-2.54,2.46,4.61,4.61,0,0,1-1.85.37,4.44,4.44,0,0,1-1.8-.37,4.77,4.77,0,0,1-1.48-1,4.83,4.83,0,0,1-1-1.46,4.34,4.34,0,0,1-.37-1.79,4.62,4.62,0,0,1,.37-1.85,4.67,4.67,0,0,1,2.48-2.49,4.44,4.44,0,0,1,1.8-.37,4.62,4.62,0,0,1,1.85.37,4.92,4.92,0,0,1,1.51,1,4.83,4.83,0,0,1,1,1.49A4.48,4.48,0,0,1,211.77,16Z"/><path class="cls-1" d="M237,30.93a2,2,0,0,1-.63.67,1.62,1.62,0,0,1-.83.19,2.63,2.63,0,0,1-1.15-.3L233,30.83a13,13,0,0,0-1.83-.67,8.79,8.79,0,0,0-2.43-.3,5.66,5.66,0,0,0-3.43.92,2.87,2.87,0,0,0-1.25,2.42,2.3,2.3,0,0,0,.64,1.66A5.76,5.76,0,0,0,226.4,36a16.61,16.61,0,0,0,2.4.91q1.34.4,2.74.88t2.74,1.09a9.57,9.57,0,0,1,2.4,1.55A6.83,6.83,0,0,1,239,45.87a10.15,10.15,0,0,1-.81,4.07,9,9,0,0,1-2.36,3.22A11.05,11.05,0,0,1,232,55.28a17.85,17.85,0,0,1-8.32.48,18.2,18.2,0,0,1-2.89-.79,16,16,0,0,1-2.56-1.19,12.42,12.42,0,0,1-2.07-1.49l1.7-2.8a2.41,2.41,0,0,1,.78-.78,2.17,2.17,0,0,1,1.13-.27,2.38,2.38,0,0,1,1.3.39q.61.39,1.42.83a12.6,12.6,0,0,0,1.89.84,8.34,8.34,0,0,0,2.76.39,7.15,7.15,0,0,0,2.25-.31,4.76,4.76,0,0,0,1.55-.82,3.09,3.09,0,0,0,.9-1.18,3.54,3.54,0,0,0,.28-1.39,2.48,2.48,0,0,0-.64-1.76,5.64,5.64,0,0,0-1.7-1.19,16.42,16.42,0,0,0-2.42-.91q-1.36-.4-2.77-.88a25.54,25.54,0,0,1-2.77-1.12,9.44,9.44,0,0,1-2.42-1.63,7.36,7.36,0,0,1-1.7-2.42,8.43,8.43,0,0,1-.64-3.46,8.82,8.82,0,0,1,.75-3.58,8.39,8.39,0,0,1,2.19-3,10.89,10.89,0,0,1,3.61-2,15,15,0,0,1,5-.76,15.3,15.3,0,0,1,5.76,1,13,13,0,0,1,4.33,2.74Z"/></svg>